<?xml version="1.0" encoding="UTF-8"?>
<svg id="Layer_1"
     data-name="Layer 1"
     xmlns="http://www.w3.org/2000/svg"
     viewBox="68,70,93,105">
  <defs>
    <style>
      .letters {
          fill: #2e52a0;
      }
      .pointy-bits {
          fill: #c44236;
      }
    </style>
  </defs>
  <g> <!-- SubMark Group -->
    <!-- Letter: O -->
    <path class="letters" d="m137.91,112.9c3.93,4.89,6.13,10.74,5.85,16.37.64,18.45-16.64,29.02-28.94,28.97-15.74-.06-30.08-12.94-29.65-29.38.37-14.2,13.6-27.14,28.02-27.52,1.53-.04,3.03.04,4.49.22l3.3-13.98c-1.95-.27-3.95-.44-5.99-.46-26.29-.27-44.2,20.31-44.6,41.73-.46,24.43,19.61,43.12,43.64,43.71,24.71-.1,44.24-19.05,44.53-42.21.13-10.61-3.79-20.55-10.5-28.23l-10.16,10.77Z"/>
    <!-- diamond -->
    <polygon class="pointy-bits" points="145.54 71.45 127.69 90.31 121.86 115.61 123.83 116.66 142.21 98.09 147.5 72.5 145.54 71.45"/>
  </g>
</svg>