<?xml version="1.0" encoding="UTF-8"?>
<svg id="Layer_1"
     data-name="Layer 1"
     xmlns="http://www.w3.org/2000/svg"
     viewBox="70 65 510 520">
  <defs>
    <style>
      .cls-1 {
        fill: #84a6c0;
      }

      .cls-2 {
        fill: #d15845;
      }

      .cls-3 {
        fill: #dd634b;
      }

      .cls-4 {
        fill: #d5c409;
      }

      .cls-5 {
        fill: #105a81;
      }

      .cls-6 {
        fill: #99b4ca;
      }

      .cls-7 {
        fill: #2e52a0;
      }
    </style>
  </defs>
  <g>
    <polygon class="cls-6" points="252.19 151.15 266.09 142.65 268.12 126.47 256.73 114.81 240.51 116.43 231.67 130.13 236.87 145.58 252.19 151.15"/>
    <polygon class="cls-6" points="219.99 117.14 233.9 108.63 235.92 92.46 224.54 80.79 203.64 72.46 199.48 96.11 204.67 111.56 219.99 117.14"/>
    <polygon class="cls-1" points="441.43 152.73 455.34 144.23 457.36 128.05 451.29 108.08 429.76 118.02 420.92 131.71 426.11 147.16 441.43 152.73"/>
    <polygon class="cls-4" points="543.04 361.25 556.95 352.75 564.05 336.36 547.59 324.91 531.37 326.53 522.53 340.23 527.72 355.68 543.04 361.25"/>
    <polygon class="cls-1" points="477.77 524.87 491.18 507.24 493.2 491.07 481.82 479.4 465.6 481.03 456.76 494.72 461.95 510.17 477.77 524.87"/>
    <polygon class="cls-1" points="525.16 543.75 545.21 540.41 541.09 519.07 529.7 507.4 513.48 509.03 504.64 522.72 509.84 538.17 525.16 543.75"/>
    <polygon class="cls-6" points="318.12 580.04 334.32 561.71 336.34 545.53 324.96 533.87 308.74 535.49 299.9 549.19 305.09 564.64 318.12 580.04"/>
    <polygon class="cls-4" points="514.48 487.89 536.83 480.79 530.41 463.21 519.02 451.54 502.8 453.17 493.96 466.86 499.16 482.32 514.48 487.89"/>
    <polygon class="cls-3" points="159.49 256.45 170.2 244.16 167.27 228.12 152.91 220.41 127.1 219.32 133.61 242.56 143.2 255.73 159.49 256.45"/>
    <polygon class="cls-4" points="121.2 291.86 132.65 280.25 130.71 264.06 116.84 255.49 92.21 254.83 96.22 276.4 104.99 290.15 121.2 291.86"/>
    <polygon class="cls-4" points="211.58 163.09 225.49 154.58 227.51 138.41 216.13 126.74 194.51 119.48 191.07 142.06 196.26 157.51 211.58 163.09"/>
    <polygon class="cls-4" points="100.11 121.75 113.5 112.47 114.6 96.2 102.56 85.21 77.66 79.41 78.42 101.94 84.49 117.07 100.11 121.75"/>
    <polygon class="cls-5" points="158.28 163.35 172.18 154.85 174.21 138.67 162.82 127.01 140.65 118.94 137.76 142.33 142.96 157.78 158.28 163.35"/>
  </g>
  <g>
    <polygon class="cls-5" points="414.3 187.64 417.17 164.66 400.41 136.59 377.95 150.4 365.4 169.86 372.78 191.81 394.55 199.72 414.3 187.64"/>
    <polygon class="cls-5" points="497.24 303.26 516.93 291.07 532.83 267.97 503.41 251.6 480.38 254.04 467.93 273.56 475.43 295.47 497.24 303.26"/>
    <polygon class="cls-5" points="456.92 440.42 478.59 448.6 498.49 436.76 501.64 413.82 485.67 397.05 462.6 399.08 449.81 418.39 456.92 440.42"/>
    <polygon class="cls-5" points="325.33 493.95 332.79 515.87 354.59 523.7 374.3 511.54 377.08 488.55 360.84 472.04 337.81 474.44 325.33 493.95"/>
    <polygon class="cls-5" points="201.07 424.43 188.36 443.79 188.36 480.4 217.26 473.88 237.11 461.95 240.17 439 224.12 422.3 201.07 424.43"/>
    <polygon class="cls-5" points="175.83 285.68 152.81 288.18 130.65 309.1 147.97 329.63 169.79 337.36 189.45 325.12 192.14 302.12 175.83 285.68"/>
    <polygon class="cls-5" points="272.85 179.07 256.89 162.3 233.82 164.32 221.02 183.62 228.13 205.66 249.79 213.85 269.69 202.01 272.85 179.07"/>
  </g>
  <g>
    <polygon class="cls-2" points="513.91 239.53 529.65 222.55 539.12 193.89 506.14 188.08 484.59 196.55 477.77 218.68 490.82 237.81 513.91 239.53"/>
    <polygon class="cls-6" points="519.69 421.97 542.75 424.04 567.22 410.42 555.62 384.35 535.74 372.48 514.06 380.63 506.92 402.66 519.69 421.97"/>
    <polygon class="cls-2" points="381.69 521.65 391.76 542.51 419.34 558.63 432.43 533.17 432.4 510.01 414.28 495.6 391.71 500.78 381.69 521.65"/>
    <polygon class="cls-6" points="211.67 483.42 202.82 504.82 204.38 538.13 236.86 528.95 254.12 513.52 252.81 490.4 233.92 477 211.67 483.42"/>
    <polygon class="cls-6" points="137.41 334.45 114.93 340.01 88.02 367.01 115.68 381.73 138.34 386.48 156.19 371.72 155.77 348.56 137.41 334.45"/>
    <polygon class="cls-6" points="205 177 185.02 165.3 163.41 173.62 156.44 195.71 169.37 214.92 192.45 216.8 208.31 199.92 205 177"/>
    <polygon class="cls-2" points="374.85 137.74 371.74 114.8 354.56 94.8 330.19 111.05 323.03 133.07 335.78 152.4 358.84 154.48 374.85 137.74"/>
  </g>
  <g>
    <path class="cls-7" d="m464.73,318.98c-.48-4.78-1.23-9.47-2.2-14.07l.6-.36,36.6,13.56,12.22,37.07-21.37,32.66-38.86,3.66-.43-.45c10.91-21.52,16.03-46.29,13.44-72.08Z"/>
    <path class="cls-7" d="m453.07,276.61c-12.71-27.18-34.37-48.97-60.87-62.01l.08-.64,33.24-20.46,36.72,13.23,12.55,36.96-21.07,32.86-.66.07Z"/>
    <path class="cls-7" d="m321.5,201.86c-15.13,1.52-29.38,5.58-42.41,11.68l-.34-.35,4.84-38.73,33.3-20.36,36.68,13.34,12.44,37-.33.52c-14.07-3.45-28.95-4.62-44.18-3.09Z"/>
    <path class="cls-7" d="m207.4,301.26l-.3.03-27.17-28.02,4.96-38.71,33.36-20.26,36.64,13.45.14.41c-23.53,18.05-40.54,43.81-47.63,73.1Z"/>
    <path class="cls-7" d="m436.75,413.69l.36.13,12.71,36.9-20.93,32.94-38.81,4.17-27.46-27.74.04-.31c30.06-6.57,55.86-23.29,74.1-46.1Z"/>
    <path class="cls-7" d="m170.27,351.16l33.18-20.56.3.11c-.04,4.75.15,9.55.64,14.39,2.6,25.9,12.61,49.24,27.68,68.21l-.16.25-38.81,4.13-27.43-27.77,4.61-38.76Z"/>
    <path class="cls-7" d="m250.75,432.47c22.48,18.75,51.18,29.99,82.03,30.37l.08.25-21.4,32.64-38.86,3.62-27.06-28.13,5.12-38.69.09-.05Z"/>
  </g>
</svg>